HIERARCHY
ROOT Hips
{
	OFFSET	0.00	0.00	0.00
	CHANNELS 6 Xposition Yposition Zposition Zrotation Xrotation Yrotation
	JOINT LeftUpLeg
	{
		OFFSET	 0.126116	-0.014019	-0.065224
		CHANNELS 3 Zrotation Xrotation Yrotation
		JOINT LeftLeg
		{
			OFFSET	 0.000000	 0.000000	 0.569914
			CHANNELS 3 Zrotation Xrotation Yrotation
			JOINT LeftFoot
			{
				OFFSET	 0.000000	 0.000000	 0.544423
				CHANNELS 3 Zrotation Xrotation Yrotation
				JOINT LeftToeBase
				{
					OFFSET	 0.000000	 0.000000	 0.207117
					CHANNELS 3 Zrotation Xrotation Yrotation
					End Site
					{
						OFFSET	 0.000000	 0.000000	 0.207117
					}
				}
			}
		}
	}
	JOINT RightUpLeg
	{
		OFFSET	-0.124023	-0.008373	-0.065224
		CHANNELS 3 Zrotation Xrotation Yrotation
		JOINT RightLeg
		{
			OFFSET	 0.000000	 0.000000	 0.570047
			CHANNELS 3 Zrotation Xrotation Yrotation
			JOINT RightFoot
			{
				OFFSET	 0.000000	 0.000000	 0.544354
				CHANNELS 3 Zrotation Xrotation Yrotation
				JOINT RightToeBase
				{
					OFFSET	 0.000000	 0.000000	 0.207540
					CHANNELS 3 Zrotation Xrotation Yrotation
					End Site
					{
						OFFSET	 0.000000	 0.000000	 0.207540
					}
				}
			}
		}
	}
	JOINT Spine
	{
		OFFSET	 0.000184	-0.007763	 0.117403
		CHANNELS 3 Zrotation Xrotation Yrotation
		JOINT Spine1
		{
			OFFSET	 0.000000	 0.000000	 0.137269
			CHANNELS 3 Zrotation Xrotation Yrotation
			JOINT Spine2
			{
				OFFSET	 0.000000	 0.000000	 0.156879
				CHANNELS 3 Zrotation Xrotation Yrotation
				JOINT LeftShoulder
				{
					OFFSET	 0.080501	-0.002496	 0.160144
					CHANNELS 3 Zrotation Xrotation Yrotation
					JOINT LeftArm
					{
						OFFSET	 0.000000	 0.000000	 0.164363
						CHANNELS 3 Zrotation Xrotation Yrotation
						JOINT LeftForeArm
						{
							OFFSET	 0.000000	 0.000000	 0.364576
							CHANNELS 3 Zrotation Xrotation Yrotation
							JOINT LeftHand
							{
								OFFSET	 0.000000	 0.000000	 0.360812
								CHANNELS 3 Zrotation Xrotation Yrotation
								JOINT LeftHandIndex1
								{
									OFFSET	 0.000000	 0.000000	 0.086006
									CHANNELS 3 Zrotation Xrotation Yrotation
									JOINT LeftHandIndex2
									{
										OFFSET	 0.000000	 0.000000	 0.047237
										CHANNELS 3 Zrotation Xrotation Yrotation
										JOINT LeftHandIndex3
										{
											OFFSET	-0.004284	-0.000551	 0.038165
											CHANNELS 3 Zrotation Xrotation Yrotation
											End Site
											{
												OFFSET	-0.004284	-0.000551	 0.038165
											}
										}
									}
								}
							}
						}
					}
				}
				JOINT Neck
				{
					OFFSET	 0.000000	 0.000000	 0.176489
					CHANNELS 3 Zrotation Xrotation Yrotation
					JOINT Head
					{
						OFFSET	 0.000000	-0.001747	 0.077940
						CHANNELS 3 Zrotation Xrotation Yrotation
						End Site
						{
							OFFSET	 0.000000	-0.001747	 0.077940
						}
					}
				}
				JOINT RightShoulder
				{
					OFFSET	-0.080363	 0.000306	 0.159706
					CHANNELS 3 Zrotation Xrotation Yrotation
					JOINT RightArm
					{
						OFFSET	 0.000000	 0.000000	 0.164196
						CHANNELS 3 Zrotation Xrotation Yrotation
						JOINT RightForeArm
						{
							OFFSET	 0.000000	 0.000000	 0.365611
							CHANNELS 3 Zrotation Xrotation Yrotation
							JOINT RightHand
							{
								OFFSET	 0.000000	 0.000000	 0.360648
								CHANNELS 3 Zrotation Xrotation Yrotation
								JOINT RightHandIndex1
								{
									OFFSET	 0.000000	 0.000000	 0.069977
									CHANNELS 3 Zrotation Xrotation Yrotation
									JOINT RightHandIndex2
									{
										OFFSET	 0.000000	 0.000000	 0.052305
										CHANNELS 3 Zrotation Xrotation Yrotation
										JOINT RightHandIndex3
										{
											OFFSET	 0.009002	-0.000782	 0.042196
											CHANNELS 3 Zrotation Xrotation Yrotation
											End Site
											{
												OFFSET	 0.009002	-0.000782	 0.042196
											}
										}
									}
								}
							}
						}
					}
				}
			}
		}
	}
}
MOTION
Frames:    7
Frame Time: 0.03333334
-0.713383	-0.025445	 1.253516	 169.069000	-5.808093	 0.540994	 10.902010	-1.717221	 175.898200	-1.963421	-32.220300	-1.828781	-61.095890	 76.579810	 52.483100	-2.385833	 28.452760	 0.000004	-34.939370	-8.685234	-167.720200	 10.452080	-33.698890	 5.969160	 25.235990	 78.633620	-27.346230	 2.384659	 28.388700	-0.000001	 54.848890	-1.638430	-14.126160	 8.272465	 6.488470	-1.996560	 2.374943	 5.636405	 2.968553	-91.776220	 78.527400	-179.999900	-20.407020	 46.999920	-26.684070	-8.976514	-17.589080	-51.649110	-35.575000	-29.265340	-20.741990	-4.130354	 21.526190	 0.991307	-5.167926	 0.731697	 3.519349	-1.378229	 35.397820	-2.634230	 14.733140	 5.452549	-3.267772	 6.593645	-13.763840	-3.838979	 89.782030	 78.203850	-180.000000	-59.203250	-5.565170	 76.564830	 47.441000	-19.530800	 154.651100	-13.742920	-1.601647	 8.454735	 5.716295	 19.173350	-3.684826	 5.027458	 0.246833	-9.377971	-2.350882	 35.473990	 5.254307
-0.712570	-0.026469	 1.252421	 168.561900	-5.861046	 0.734181	 10.431720	-1.802678	 176.292900	-1.720587	-32.299140	-1.702705	-60.416440	 76.862520	 51.493110	-2.385833	 28.452760	 0.000004	-35.476230	-9.196247	-167.552600	 10.737750	-33.753930	 6.140392	 23.655740	 78.289100	-26.006000	 2.384659	 28.388700	-0.000001	 56.192310	-2.239325	-14.476320	 9.111913	 7.817735	-1.963326	 2.341557	 4.056765	 3.408062	-91.776160	 78.527420	 180.000000	-23.546530	 40.841360	-49.801710	-1.435332	-10.337680	-20.574390	-36.638920	-29.453720	-21.476940	-4.130354	 21.526190	 0.991307	-5.167926	 0.731697	 3.519349	-1.378229	 35.397820	-2.634230	 14.973890	 5.200821	-4.122265	 6.413042	-14.818390	-4.802362	 89.782110	 78.203830	 180.000000	-59.560770	-6.110383	 75.691890	 48.733600	-20.279840	 155.165400	-16.842570	-1.273632	 8.795112	 5.716295	 19.173350	-3.684826	 5.027458	 0.246833	-9.377971	-2.350882	 35.473990	 5.254307
-0.710951	-0.027216	 1.251295	 168.005400	-5.630100	 0.550801	 9.595531	-1.849002	 176.954100	-1.431142	-31.992580	-1.534608	-59.699950	 77.153950	 50.465070	-2.385833	 28.452760	 0.000004	-36.123540	-10.181390	-167.379000	 11.131680	-34.185900	 6.436090	 22.802670	 78.417110	-25.292530	 2.384659	 28.388700	-0.000001	 58.201100	-3.667109	-14.189910	 10.623220	 9.458266	-1.768134	 2.305935	 2.116954	 2.943044	-91.776250	 78.527330	-180.000000	-28.585090	 37.368700	-63.948120	 0.572163	-6.145120	-7.199168	-38.094980	-29.713660	-22.450800	-4.130354	 21.526190	 0.991307	-5.167926	 0.731697	 3.519349	-1.378229	 35.397820	-2.634230	 15.146290	 5.702169	-4.776070	 6.307999	-16.921060	-4.790550	 89.782100	 78.203890	 180.000000	-57.816750	-7.303675	 76.205110	 50.861750	-21.267010	 156.247300	-20.925880	-0.456026	 5.638969	 5.716295	 19.173350	-3.684826	 5.027458	 0.246833	-9.377971	-2.350882	 35.473990	 5.254307
-0.710907	-0.027148	 1.251178	 167.609900	-5.308391	 0.464598	 8.867918	-1.885735	 177.246800	-1.204885	-31.750910	-1.404975	-59.565110	 77.247980	 50.173630	-2.385833	 28.452760	 0.000004	-36.598590	-10.739170	-167.425400	 11.420660	-34.429490	 6.643936	 22.316970	 78.663010	-24.828970	 2.384659	 28.388700	-0.000001	 59.766960	-5.045345	-14.155970	 11.931150	 10.516600	-2.162906	 2.206668	 0.885809	 3.039896	-91.776180	 78.527360	 180.000000	-31.958770	 35.711380	-67.941660	 0.743007	-6.235227	-7.218160	-38.887890	-29.666930	-22.774580	-4.130354	 21.526190	 0.991307	-5.167926	 0.731697	 3.519349	-1.378229	 35.397820	-2.634230	 15.155370	 5.898773	-5.133770	 6.233014	-18.296630	-4.992450	 89.782150	 78.203850	 180.000000	-55.459790	-8.193601	 77.822190	 52.655460	-22.448820	 156.867100	-23.730830	 1.222196	 1.910469	 5.716295	 19.173350	-3.684826	 5.027458	 0.246833	-9.377971	-2.350882	 35.473990	 5.254307
-0.712839	-0.026074	 1.251931	 167.246700	-4.912001	 0.754866	 7.749348	-1.904105	 177.295400	-0.880723	-31.745180	-1.233939	-62.458270	 77.705840	 52.832830	-2.385833	 28.452760	 0.000004	-37.346520	-10.720510	-167.612100	 11.664020	-34.013460	 6.714137	 22.468740	 78.502050	-25.060260	 2.384659	 28.388700	-0.000001	 61.249280	-6.902408	-14.216500	 13.479230	 11.653730	-4.142490	 2.049933	-0.111519	 3.755662	-91.776120	 78.527380	 180.000000	-35.814370	 34.754380	-71.072430	 1.091762	-6.341064	-7.246136	-39.732750	-29.711750	-23.068390	-4.130354	 21.526190	 0.991307	-5.167926	 0.731697	 3.519349	-1.378229	 35.397820	-2.634230	 14.951120	 5.386900	-5.119030	 6.062244	-18.771870	-5.302977	 89.782100	 78.203820	 180.000000	-52.752640	-9.238540	 79.545620	 54.395080	-24.323870	 156.934500	-26.647260	 3.666124	-1.616787	 5.716295	 19.173350	-3.684826	 5.027458	 0.246833	-9.377971	-2.350882	 35.473990	 5.254307
-0.715306	-0.024943	 1.252821	 166.980500	-4.768663	 0.905673	 7.153157	-1.901996	 177.418600	-0.685794	-31.765450	-1.131929	-63.535980	 77.797760	 53.897240	-2.385833	 28.452760	 0.000004	-37.901070	-10.903680	-167.697700	 11.908600	-33.836110	 6.823940	 21.755920	 78.405880	-24.331340	 2.384659	 28.388700	-0.000001	 62.650080	-8.305609	-14.161850	 14.966310	 12.194640	-6.136736	 1.778728	-0.751214	 4.475927	-91.776180	 78.527400	 180.000000	-37.578730	 34.035100	-71.588130	 0.912678	-7.974416	-11.639890	-39.984330	-29.547980	-22.880370	-4.130354	 21.526190	 0.991307	-5.167926	 0.731697	 3.519349	-1.378229	 35.397820	-2.634230	 14.623180	 5.515063	-4.932831	 5.778808	-19.966410	-6.030501	 89.782100	 78.203870	 180.000000	-49.600620	-9.865062	 81.747940	 55.479230	-26.663560	 156.197900	-28.637800	 6.225335	-4.911634	 5.716295	 19.173350	-3.684826	 5.027458	 0.246833	-9.377971	-2.350882	 35.473990	 5.254307
-0.717690	-0.023611	 1.253838	 166.770400	-4.580989	 1.225855	 6.612994	-2.125845	 177.375200	-0.524625	-31.879020	-1.050359	-63.275850	 77.940120	 53.656530	-2.385833	 28.452760	 0.000004	-38.460590	-11.173770	-167.981900	 12.194800	-33.844110	 6.989867	 21.923530	 78.430500	-24.504470	 2.384659	 28.388700	-0.000001	 64.049510	-9.835511	-14.353120	 16.510240	 12.434280	-7.646215	 1.441958	-1.173827	 4.947843	-91.776210	 78.527380	-180.000000	-35.299130	 34.440630	-64.039050	-3.847405	-15.694780	-36.411460	-39.813820	-29.218770	-22.299710	-4.130354	 21.526190	 0.991307	-5.167926	 0.731697	 3.519349	-1.378229	 35.397820	-2.634230	 14.179330	 5.194164	-4.663104	 5.375274	-20.666680	-6.955132	 89.782170	 78.203900	 180.000000	-45.727320	-9.573015	 84.200300	 55.834960	-29.539460	 154.580800	-29.457160	 8.973022	-7.750099	 5.716295	 19.173350	-3.684826	 5.027458	 0.246833	-9.377971	-2.350882	 35.473990	 5.254307
